<svg width="18" height="22" viewBox="0 0 18 22" fill="none" xmlns="http://www.w3.org/2000/svg">
<path d="M1 4.56518C1 5.43001 1.84285 6.25943 3.34315 6.87096C4.84344 7.48249 6.87827 7.82605 9 7.82605C11.1217 7.82605 13.1566 7.48249 14.6569 6.87096C16.1571 6.25943 17 5.43001 17 4.56518M1 4.56518C1 3.70034 1.84285 2.87092 3.34315 2.25939C4.84344 1.64786 6.87827 1.30431 9 1.30431C11.1217 1.30431 13.1566 1.64786 14.6569 2.25939C16.1571 2.87092 17 3.70034 17 4.56518M1 4.56518V11.0869M17 4.56518V11.0869M1 11.0869C1 11.9518 1.84285 12.7812 3.34315 13.3927C4.84344 14.0042 6.87827 14.3478 9 14.3478C11.1217 14.3478 13.1566 14.0042 14.6569 13.3927C16.1571 12.7812 17 11.9518 17 11.0869M1 11.0869V17.6087C1 18.4735 1.84285 19.3029 3.34315 19.9144C4.84344 20.526 6.87827 20.8695 9 20.8695C11.1217 20.8695 13.1566 20.526 14.6569 19.9144C16.1571 19.3029 17 18.4735 17 17.6087V11.0869" stroke="white" stroke-width="2" stroke-linecap="round" stroke-linejoin="round"/>
</svg>
