<svg width="18" height="22" viewBox="0 0 18 22" fill="none" xmlns="http://www.w3.org/2000/svg">
<path id="Vector" d="M1 4.56519C1 5.43003 1.84285 6.25944 3.34315 6.87097C4.84344 7.48251 6.87827 7.82606 9 7.82606C11.1217 7.82606 13.1566 7.48251 14.6569 6.87097C16.1571 6.25944 17 5.43003 17 4.56519M1 4.56519C1 3.70035 1.84285 2.87094 3.34315 2.25941C4.84344 1.64788 6.87827 1.30432 9 1.30432C11.1217 1.30432 13.1566 1.64788 14.6569 2.25941C16.1571 2.87094 17 3.70035 17 4.56519M1 4.56519V11.0869M17 4.56519V11.0869M1 11.0869C1 11.9518 1.84285 12.7812 3.34315 13.3927C4.84344 14.0042 6.87827 14.3478 9 14.3478C11.1217 14.3478 13.1566 14.0042 14.6569 13.3927C16.1571 12.7812 17 11.9518 17 11.0869M1 11.0869V17.6087C1 18.4735 1.84285 19.3029 3.34315 19.9145C4.84344 20.526 6.87827 20.8695 9 20.8695C11.1217 20.8695 13.1566 20.526 14.6569 19.9145C16.1571 19.3029 17 18.4735 17 17.6087V11.0869" stroke="#9197B3" stroke-width="2" stroke-linecap="round" stroke-linejoin="round"/>
</svg>
