<svg width="19" height="24" viewBox="0 0 19 24" fill="none" xmlns="http://www.w3.org/2000/svg">
<path d="M9 12V3.84782C9 3.41541 8.84196 3.0007 8.56066 2.69493C8.27936 2.38917 7.89782 2.21739 7.5 2.21739C7.10218 2.21739 6.72064 2.38917 6.43934 2.69493C6.15804 3.0007 6 3.41541 6 3.84782V13.087L4.53 11.4891C4.23554 11.1694 3.85125 10.9658 3.43816 10.9107C3.02507 10.8556 2.60688 10.952 2.25 11.1848C1.91495 11.4031 1.67148 11.7549 1.57138 12.1654C1.47128 12.5758 1.52245 13.0125 1.714 13.3826C3.593 17.013 4.688 19.088 5 19.6087L5.196 19.9348C5.74252 20.8368 6.48658 21.5772 7.36138 22.0894C8.23619 22.6017 9.21434 22.8697 10.208 22.8696H10H12C13.5913 22.8696 15.1174 22.1825 16.2426 20.9594C17.3679 19.7363 18 18.0775 18 16.3478V11.4565C18 11.0241 17.842 10.6094 17.5607 10.3036C17.2794 9.99786 16.8978 9.82609 16.5 9.82609C16.1022 9.82609 15.7206 9.99786 15.4393 10.3036C15.158 10.6094 15 11.0241 15 11.4565M9 11.4565V9.28261C9 8.85019 9.15804 8.43548 9.43934 8.12972C9.72064 7.82395 10.1022 7.65217 10.5 7.65217C10.8978 7.65217 11.2794 7.82395 11.5607 8.12972C11.842 8.43548 12 8.85019 12 9.28261V12M12 10.3696C12 9.93715 12.158 9.52244 12.4393 9.21667C12.7206 8.91091 13.1022 8.73913 13.5 8.73913C13.8978 8.73913 14.2794 8.91091 14.5607 9.21667C14.842 9.52244 15 9.93715 15 10.3696V12M3 2.21739L2 1.13043M2 6.56522H1M12 2.21739L13 1.13043M13 5.47826H14" stroke="white" stroke-width="2" stroke-linecap="round" stroke-linejoin="round"/>
</svg>
