<svg width="24" height="28" viewBox="0 0 24 28" fill="none" xmlns="http://www.w3.org/2000/svg">
<g id="tabler-icon-hand-click">
<path id="Vector" d="M11 14.0001V5.84789C11 5.41547 10.842 5.00076 10.5607 4.69499C10.2794 4.38923 9.89782 4.21745 9.5 4.21745C9.10218 4.21745 8.72064 4.38923 8.43934 4.69499C8.15804 5.00076 8 5.41547 8 5.84789V15.087L6.53 13.4892C6.23554 13.1695 5.85125 12.9659 5.43816 12.9108C5.02507 12.8556 4.60688 12.9521 4.25 13.1848C3.91495 13.4032 3.67148 13.755 3.57138 14.1654C3.47128 14.5759 3.52245 15.0126 3.714 15.3827C5.593 19.0131 6.688 21.0881 7 21.6088L7.196 21.9348C7.74252 22.8369 8.48658 23.5773 9.36138 24.0895C10.2362 24.6017 11.2143 24.8698 12.208 24.8696H12H14C15.5913 24.8696 17.1174 24.1825 18.2426 22.9595C19.3679 21.7364 20 20.0776 20 18.3479V13.4566C20 13.0242 19.842 12.6095 19.5607 12.3037C19.2794 11.9979 18.8978 11.8261 18.5 11.8261C18.1022 11.8261 17.7206 11.9979 17.4393 12.3037C17.158 12.6095 17 13.0242 17 13.4566M11 13.4566V11.2827C11 10.8503 11.158 10.4355 11.4393 10.1298C11.7206 9.82401 12.1022 9.65223 12.5 9.65223C12.8978 9.65223 13.2794 9.82401 13.5607 10.1298C13.842 10.4355 14 10.8503 14 11.2827V14.0001M14 12.3696C14 11.9372 14.158 11.5225 14.4393 11.2167C14.7206 10.911 15.1022 10.7392 15.5 10.7392C15.8978 10.7392 16.2794 10.911 16.5607 11.2167C16.842 11.5225 17 11.9372 17 12.3696V14.0001M5 4.21745L4 3.13049M4 8.56528H3M14 4.21745L15 3.13049M15 7.47832H16" stroke="#9197B3" stroke-width="2" stroke-linecap="round" stroke-linejoin="round"/>
</g>
</svg>
