<?xml version="1.0" encoding="iso-8859-1"?>
<!-- Uploaded to: SVG Repo, www.svgrepo.com, Generator: SVG Repo Mixer Tools -->
<svg fill="#000000" height="800px" width="800px" version="1.1" id="Layer_1" xmlns="http://www.w3.org/2000/svg" xmlns:xlink="http://www.w3.org/1999/xlink" 
	 viewBox="0 0 490.667 490.667" xml:space="preserve">
<g>
	<g>
		<g>
			<path d="M459.113,31.24c-41.654-41.654-109.199-41.654-150.853,0L21.647,317.854c-3.425,3.425-5.583,7.915-6.118,12.729
				L0.447,466.348c-1.509,13.587,9.971,25.068,23.558,23.558l135.765-15.083c4.815-0.535,9.304-2.693,12.729-6.118L399.827,241.38
				c0.007-0.007,0.016-0.013,0.023-0.021l59.264-59.264c20.827-20.827,31.241-48.127,31.24-75.427
				C490.354,79.368,479.941,52.068,459.113,31.24z M428.943,151.923l-44.18,44.18l-90.512-90.512l44.179-44.179
				c24.991-24.992,65.521-24.992,90.513,0c12.495,12.495,18.743,28.875,18.744,45.255
				C447.687,123.048,441.439,139.428,428.943,151.923z M147.622,433.245L45.797,444.557l11.312-101.825L264.081,135.76
				l90.513,90.513L147.622,433.245z"/>
			<path d="M232.839,448h-21.333c-11.782,0-21.333,9.551-21.333,21.333c0,11.782,9.551,21.333,21.333,21.333h21.333
				c11.782,0,21.333-9.551,21.333-21.333C254.172,457.551,244.621,448,232.839,448z"/>
			<path d="M467.506,448h-42.667c-11.782,0-21.333,9.551-21.333,21.333c0,11.782,9.551,21.333,21.333,21.333h42.667
				c11.782,0,21.333-9.551,21.333-21.333C488.839,457.551,479.288,448,467.506,448z"/>
			<path d="M360.839,448h-42.667c-11.782,0-21.333,9.551-21.333,21.333c0,11.782,9.551,21.333,21.333,21.333h42.667
				c11.782,0,21.333-9.551,21.333-21.333C382.172,457.551,372.621,448,360.839,448z"/>
		</g>
	</g>
</g>
</svg>