<svg width="24" height="27" viewBox="0 0 24 27" fill="none" xmlns="http://www.w3.org/2000/svg">
<g id="tabler-icon-robot">
<path id="Vector" d="M12 3.04346V5.21737M9 13.913V23.6956M15 13.913V23.6956M5 18.2608L9 16.0869M15 16.0869L19 18.2608M9 20.4348H15M10 9.5652V9.57607M14 9.5652V9.57607M6 7.39128C6 6.81473 6.21071 6.26178 6.58579 5.85409C6.96086 5.44641 7.46957 5.21737 8 5.21737H16C16.5304 5.21737 17.0391 5.44641 17.4142 5.85409C17.7893 6.26178 18 6.81473 18 7.39128V11.7391C18 12.3157 17.7893 12.8686 17.4142 13.2763C17.0391 13.684 16.5304 13.913 16 13.913H8C7.46957 13.913 6.96086 13.684 6.58579 13.2763C6.21071 12.8686 6 12.3157 6 11.7391V7.39128Z" stroke="#9197B3" stroke-width="2" stroke-linecap="round" stroke-linejoin="round"/>
</g>
</svg>
