<?xml version="1.0" encoding="iso-8859-1"?>
<!-- Uploaded to: SVG Repo, www.svgrepo.com, Generator: SVG Repo Mixer Tools -->
<svg height="800px" width="800px" version="1.1" id="Capa_1" xmlns="http://www.w3.org/2000/svg" xmlns:xlink="http://www.w3.org/1999/xlink" 
	 viewBox="0 0 291.006 291.006" xml:space="preserve">
<g>
	<g>
		<path style="fill:#010002;" d="M57.377,0c-24.59,0-44.6,20.01-44.6,44.606s20.01,44.611,44.6,44.611H233.63
			c24.59,0,44.6-20.01,44.6-44.611C278.23,20.01,258.22,0,233.63,0C233.63,0,57.377,0,57.377,0z M267.352,44.6
			c0,18.596-15.126,33.733-33.722,33.733H57.377c-18.596,0-33.722-15.131-33.722-33.733c0-18.596,15.126-33.728,33.722-33.728
			H233.63C252.226,10.878,267.352,26.004,267.352,44.6z"/>
		<path style="fill:#010002;" d="M233.63,100.895H57.377c-24.59,0-44.6,20.01-44.6,44.606s20.01,44.611,44.6,44.611H233.63
			c24.59,0,44.6-20.01,44.6-44.611C278.23,120.905,258.225,100.895,233.63,100.895z M233.63,179.228H57.377
			c-18.596,0-33.722-15.131-33.722-33.733c0-18.596,15.126-33.728,33.722-33.728H233.63c18.596,0,33.722,15.131,33.722,33.728
			C267.352,164.097,252.226,179.228,233.63,179.228z"/>
		<path style="fill:#010002;" d="M233.63,201.789H57.377c-24.59,0-44.6,20.01-44.6,44.606s20.01,44.611,44.6,44.611H233.63
			c24.59,0,44.6-20.01,44.6-44.611C278.23,221.8,258.225,201.789,233.63,201.789z M233.63,280.123H57.377
			c-18.596,0-33.722-15.132-33.722-33.733c0-18.596,15.126-33.728,33.722-33.728H233.63c18.596,0,33.722,15.131,33.722,33.728
			C267.352,264.991,252.226,280.123,233.63,280.123z"/>
		<path style="fill:#010002;" d="M73.922,19.809c-13.674,0-24.797,11.123-24.797,24.797s11.123,24.802,24.797,24.802
			s24.802-11.123,24.802-24.802C98.719,30.937,87.596,19.809,73.922,19.809z M73.922,58.53c-7.675,0-13.919-6.244-13.919-13.924
			s6.239-13.919,13.919-13.919s13.924,6.244,13.924,13.919S81.597,58.53,73.922,58.53z"/>
		<path style="fill:#010002;" d="M73.922,120.698c-13.674,0-24.797,11.123-24.797,24.797c0,13.674,11.123,24.797,24.797,24.797
			s24.802-11.123,24.802-24.797C98.724,131.821,87.596,120.698,73.922,120.698z M73.922,159.419
			c-7.675,0-13.919-6.244-13.919-13.919s6.239-13.919,13.919-13.919s13.924,6.244,13.924,13.919S81.597,159.419,73.922,159.419z"/>
		<path style="fill:#010002;" d="M73.922,221.587c-13.674,0-24.797,11.123-24.797,24.797c0,13.674,11.123,24.797,24.797,24.797
			s24.802-11.123,24.802-24.797C98.724,232.71,87.596,221.587,73.922,221.587z M73.922,260.303c-7.675,0-13.919-6.244-13.919-13.919
			c0-7.675,6.239-13.919,13.919-13.919s13.924,6.244,13.924,13.919S81.597,260.303,73.922,260.303z"/>
	</g>
</g>
</svg>